PathFileType	4	(X/Y/Z)	Test12_result.trc
DataRate	CameraRate	NumFrames	NumMarkers	Units	OrigDataRate	OrigDataStartFrame	OrigNumFrames
100	100	4	56	mm	100	370	493
Frame#	Time	PELO			PELA			PELL			PELP			LFEO			LFEA			LFEL			LFEP			LTIO			LTIA			LTIL			LTIP			LFOO			LFOA			LFOL			LFOP			LTOO			LTOA			LTOL			LTOP			RFEO			RFEA			RFEL			RFEP			RTIO			RTIA			RTIL			RTIP			RFOO			RFOA			RFOL			RFOP			RTOO			RTOA			RTOL			RTOP			LASI			RASI			LPSI			RPSI			LTHI			LKNE			LTIB			LANK			LHEE			LTOE			LFMH			LVMH			RTHI			RKNE			RTIB			RANK			RHEE			RTOE			RFMH			RVMH		
		X1	Y1	Z1	X2	Y2	Z2	X3	Y3	Z3	X4	Y4	Z4	X5	Y5	Z5	X6	Y6	Z6	X7	Y7	Z7	X8	Y8	Z8	X9	Y9	Z9	X10	Y10	Z10	X11	Y11	Z11	X12	Y12	Z12	X13	Y13	Z13	X14	Y14	Z14	X15	Y15	Z15	X16	Y16	Z16	X17	Y17	Z17	X18	Y18	Z18	X19	Y19	Z19	X20	Y20	Z20	X21	Y21	Z21	X22	Y22	Z22	X23	Y23	Z23	X24	Y24	Z24	X25	Y25	Z25	X26	Y26	Z26	X27	Y27	Z27	X28	Y28	Z28	X29	Y29	Z29	X30	Y30	Z30	X31	Y31	Z31	X32	Y32	Z32	X33	Y33	Z33	X34	Y34	Z34	X35	Y35	Z35	X36	Y36	Z36	X37	Y37	Z37	X38	Y38	Z38	X39	Y39	Z39	X40	Y40	Z40	X41	Y41	Z41	X42	Y42	Z42	X43	Y43	Z43	X44	Y44	Z44	X45	Y45	Z45	X46	Y46	Z46	X47	Y47	Z47	X48	Y48	Z48	X49	Y49	Z49	X50	Y50	Z50	X51	Y51	Z51	X52	Y52	Z52	X53	Y53	Z53	X54	Y54	Z54	X55	Y55	Z55	X56	Y56	Z56
	
432	4.310000	1511.719756	864.225747	-172.755185	1672.275386	845.456946	-185.200488	1499.542376	867.238427	-334.396496	1530.663472	1025.234920	-171.181391	1370.571581	467.865547	-251.090736	1736.534950	344.868609	-413.607164	1215.742912	517.307837	-637.162958	1503.114799	865.224798	-253.354609	1149.092455	116.388377	-219.699388	1471.092276	-94.842339	-312.925504	1054.530692	141.685311	-603.640014	1359.727007	450.655419	-249.553661	1259.599356	74.694029	-234.234037	1302.400473	234.944087	-244.805910	1250.830431	66.099353	-399.969421	1099.241599	117.936180	-227.987702	1313.052093	60.279987	-236.316137	1327.319132	113.696691	-239.840058	1310.129150	57.415121	-291.561282	1259.599511	74.694017	-234.234057	1677.301511	477.186483	-97.326063	2057.164115	630.627820	-20.817633	1746.265689	510.715439	-506.975994	1520.324633	863.226740	-92.155697	1797.508560	97.970305	-116.749422	2135.300503	198.023459	20.526618	1923.344695	155.855599	-468.559980	1683.398206	457.953318	-98.311249	1907.866864	115.935796	-84.397847	1861.440375	270.523336	-65.022800	1934.109743	143.568764	-242.353398	1754.295905	73.930858	-117.256509	1959.057218	129.937441	-73.444987	1943.581761	181.466628	-66.986616	1967.804835	139.148442	-126.096829	1907.866866	115.935826	-84.397864	1553.152571	949.703319	-305.649940	1572.827319	944.835848	-44.489738	1368.350918	973.405614	-200.842015	1375.118518	965.656641	-99.988049	1399.416608	635.447081	-325.800865	1349.133725	474.711392	-304.547072	1209.642700	272.285928	-290.464782	1129.510758	117.297957	-257.971082	1085.183268	104.352865	-208.902295	1253.157935	55.280658	-220.427115	1293.894343	43.556743	-195.496895	1255.486820	38.285333	-270.758230	1576.713359	668.462751	12.311282	1667.786740	472.560564	-40.808095	1699.290659	294.568056	-36.062951	1785.495169	81.790315	-78.762510	1763.876754	42.570019	-134.599497	1921.510076	93.668670	-100.061536	1954.287019	118.357252	-125.376257	1925.219467	95.996913	-62.946628
433	4.320000	1527.321572	862.048334	-171.948440	1687.856551	843.466318	-184.929677	1514.560555	864.697727	-333.551091	1546.055466	1023.085559	-170.787600	1383.796438	466.055017	-251.865506	1749.211785	341.806917	-415.015553	1229.102854	517.900864	-637.824718	1518.426157	862.862918	-252.518455	1152.016076	120.444396	-220.951373	1468.517439	-100.149081	-314.127604	1058.503635	148.749767	-605.620640	1372.465423	449.158864	-250.354195	1261.205743	75.084669	-234.616901	1309.316889	233.831756	-245.509330	1253.224444	66.129877	-400.374400	1102.288491	123.593613	-229.567210	1314.178271	58.915019	-236.300118	1330.215314	111.830731	-239.930883	1311.517894	55.930118	-291.552621	1261.205841	75.084653	-234.616928	1694.687087	476.586482	-98.161185	2074.243795	631.716778	-27.588664	1757.401596	509.651815	-508.140219	1536.216677	861.233808	-91.378410	1808.124492	95.540346	-119.094972	2149.765194	190.050387	12.029908	1928.663300	150.843421	-473.012331	1700.442649	457.253056	-99.223383	1919.190930	109.183573	-87.037518	1878.699573	265.327321	-66.826531	1945.960423	136.516381	-244.963135	1764.030307	73.150693	-119.561263	1970.911149	121.194538	-76.196284	1957.414050	173.242456	-69.459310	1979.834360	130.305462	-128.838154	1919.190939	109.183611	-87.037564	1568.160887	947.295813	-305.201557	1588.782997	943.014378	-44.048450	1383.550072	971.002632	-199.410338	1390.722396	963.455573	-98.549077	1413.374765	633.499183	-325.930531	1362.384261	473.231336	-305.288755	1217.227608	274.596114	-291.253948	1132.512838	121.938475	-259.244755	1087.937120	110.582080	-210.089570	1254.137951	55.878723	-220.779239	1293.843104	43.481068	-195.492717	1255.751178	38.267694	-270.782654	1594.911617	667.631819	11.875623	1686.020048	472.016868	-41.502644	1715.085968	293.345628	-37.636792	1796.511043	79.611935	-80.877197	1772.978268	41.802156	-136.232820	1930.459898	86.639847	-103.017887	1965.869400	109.657933	-128.602001	1935.949029	88.360228	-66.090678
434	4.330000	1543.082053	860.133073	-171.006465	1703.609245	841.801453	-184.432404	1529.815522	862.293045	-332.575673	1561.529320	1021.206257	-170.367791	1398.152479	464.184864	-252.739132	1763.685383	339.497834	-415.534090	1244.491260	517.958319	-638.949083	1533.935437	860.699181	-251.550527	1155.752788	125.224203	-222.095467	1466.096875	-105.095494	-314.828032	1063.636752	156.257563	-607.468997	1386.318129	447.635967	-251.243047	1263.086199	75.405450	-235.001183	1317.639408	232.026392	-246.505327	1255.508967	65.869768	-400.746299	1106.229795	130.335813	-230.964354	1315.371658	57.095320	-236.346782	1333.556033	109.302304	-240.181460	1312.845978	53.916784	-291.595138	1263.086159	75.405431	-235.001201	1712.274028	476.487991	-98.921509	2091.323851	633.434701	-34.725418	1768.299518	508.949270	-509.091994	1552.228212	859.567107	-90.462439	1816.581545	93.058948	-121.129390	2163.231092	180.275898	1.223561	1929.593945	144.450651	-477.966534	1717.568170	457.027137	-100.048694	1928.468518	100.458535	-90.395825	1896.853161	258.305985	-69.110376	1954.801014	127.065295	-248.522981	1771.378670	73.129160	-121.135088	1980.831775	109.568334	-80.149408	1970.293305	162.184148	-73.054317	1989.609333	118.437218	-132.858464	1928.468518	100.458556	-90.395873	1583.352911	945.068866	-304.649810	1604.795108	941.577816	-43.512707	1398.824556	968.753828	-198.030404	1406.378073	961.541066	-97.145102	1428.225406	631.412221	-326.126711	1376.887953	471.626319	-306.184988	1225.861635	277.294269	-291.992702	1136.366526	127.291373	-260.421583	1091.744718	117.724253	-211.084778	1255.281109	56.500358	-221.095106	1293.736575	43.375751	-195.442044	1256.034634	38.233773	-270.680651	1613.355794	667.321850	11.380364	1704.516245	471.993073	-42.125436	1730.476317	292.568206	-38.915075	1805.553071	77.522101	-82.578218	1779.563590	41.464254	-137.256415	1937.934557	77.391307	-106.655354	1975.697397	99.246466	-132.000410	1944.905049	79.373518	-69.148662
435	4.340000	1558.967591	858.520826	-169.929742	1719.500871	840.506415	-183.707270	1545.277405	860.070229	-331.470575	1577.048433	1019.636767	-169.916677	1413.754950	462.269865	-253.722169	1780.063163	338.091410	-415.226979	1261.942676	517.472385	-640.489522	1549.611027	858.776810	-250.451250	1160.602637	130.796213	-223.093933	1464.055421	-109.451279	-315.019074	1070.147563	164.212768	-609.043235	1401.406491	446.100827	-252.228168	1265.201029	75.404820	-235.280402	1327.797714	228.827943	-247.873735	1257.528061	64.920051	-400.962773	1111.450460	138.389462	-232.150924	1316.451136	54.409937	-236.323555	1337.316636	105.550965	-240.521301	1313.893540	50.915039	-291.550983	1265.200903	75.404797	-235.280404	1729.961236	476.872577	-99.603220	2108.301726	635.676504	-41.920186	1779.148739	508.680003	-509.794437	1568.323799	858.265021	-89.408263	1823.228293	90.772377	-122.759428	2175.743423	169.286010	-12.195837	1925.940656	137.201623	-483.249520	1734.696270	457.271206	-100.778805	1935.853695	90.048307	-94.455751	1916.042809	249.475130	-72.074289	1960.582932	115.485633	-253.029665	1776.788758	74.122158	-121.832464	1988.875306	95.357027	-85.330184	1982.271639	148.499297	-77.869757	1997.118396	103.836094	-138.188155	1935.853692	90.048286	-94.455773	1598.697047	943.067531	-303.989188	1620.825395	940.563131	-42.881721	1414.143263	966.695586	-196.715186	1422.053081	959.949040	-95.789490	1444.005386	629.201157	-326.400698	1392.747546	469.908600	-307.241717	1235.759803	280.424653	-292.663303	1141.363195	133.417282	-261.460161	1096.980322	125.869742	-211.831682	1256.441739	57.016232	-221.247082	1293.566220	43.252060	-195.323771	1256.357611	38.196324	-270.394514	1631.895985	667.501083	10.855909	1723.135566	472.458655	-42.681215	1745.590072	292.317456	-39.771599	1813.042844	75.742429	-83.779017	1784.199317	41.657229	-137.610101	1944.944653	65.955146	-110.873708	1984.119556	87.990921	-135.437244	1952.552359	69.851995	-71.888243
